<svg width="400" height="370" viewBox="0 0 400 370" fill="none" xmlns="http://www.w3.org/2000/svg">
<path d="M0 100C0 44.7715 44.7715 0 100 0H300C355.228 0 400 44.7715 400 100V270C400 325.228 355.228 370 300 370H100C44.7715 370 0 325.228 0 270V100Z" fill="url(#paint0_linear)"/>
<path fill-rule="evenodd" clip-rule="evenodd" d="M200.285 45.3113C199.712 45.5938 198.075 46.5387 196.647 47.405C195.219 48.2746 192.995 49.5082 191.711 50.1454C190.423 50.7827 189.063 51.5988 188.683 51.9598C188.306 52.3208 187.807 52.6127 187.573 52.6127C187.339 52.6127 184.96 53.906 182.285 55.485C179.609 57.0639 177.268 58.3603 177.084 58.3635C176.903 58.3666 174.577 59.663 171.914 61.2451C169.254 62.8303 166.775 64.1236 166.401 64.1236C166.03 64.1236 165.725 64.3433 165.725 64.6102C165.725 64.8801 165.238 65.2537 164.643 65.4451C164.047 65.6366 161.649 66.8922 159.317 68.2358C156.981 69.5793 154.487 70.9699 153.773 71.3214C153.059 71.6762 152.123 72.1847 151.693 72.4578C149.629 73.7699 141.687 78.2493 141.428 78.2493C141.269 78.2493 138.738 79.6619 135.803 81.3884C132.869 83.1148 130.216 84.5274 129.907 84.5274C129.598 84.5274 129.349 84.7628 129.349 85.0516C129.349 85.3373 129.087 85.5727 128.766 85.5727C128.445 85.5727 126.165 86.7185 123.699 88.1185C117.684 91.5338 109.524 96.0822 105.701 98.1477C103.986 99.0769 100.597 100.954 98.1681 102.32C95.7359 103.688 92.6428 105.415 91.2895 106.162C89.9363 106.909 86.9616 108.585 84.6792 109.888C82.3999 111.19 80.4137 112.255 80.264 112.255C80.1174 112.255 78.415 113.234 76.4786 114.43C74.5454 115.626 72.026 117.045 70.8848 117.585C69.7404 118.125 68.4527 118.787 68.0255 119.057C65.4281 120.699 60.1492 123.74 58.1505 124.748C49.7691 128.979 48.0105 131.55 52.1451 133.534C53.1616 134.024 53.9941 134.614 53.9941 134.849C53.9941 135.085 54.2373 135.276 54.5366 135.276C54.836 135.276 56.8814 136.51 59.0859 138.023C61.2873 139.533 63.4793 140.93 63.9595 141.131C64.4366 141.328 66.0143 142.33 67.4611 143.353C68.9079 144.376 70.2643 145.215 70.4732 145.215C71.1124 145.215 91.1056 135.057 91.8383 134.36C92.2156 133.999 92.8237 133.707 93.1885 133.707C93.5533 133.707 96.001 132.53 98.6264 131.095C101.249 129.661 103.965 128.342 104.657 128.166C105.352 127.991 106.191 127.517 106.525 127.115C106.858 126.71 107.345 126.38 107.607 126.38C107.868 126.38 109.652 125.652 111.57 124.764C118.763 121.427 120.35 120.708 124.151 119.057C127.615 117.553 129.243 116.828 135.323 114.075C141.781 111.153 144.107 110.164 144.525 110.164C144.787 110.164 146.218 109.602 147.699 108.915C149.183 108.23 153.246 106.347 156.732 104.73C160.215 103.114 163.405 101.792 163.813 101.792C164.225 101.792 164.852 101.437 165.207 101.007C165.562 100.577 166.142 100.223 166.498 100.223C166.85 100.223 169.22 99.2621 171.761 98.0912C174.299 96.9204 177.081 95.6459 177.938 95.263C178.796 94.8768 182.369 93.2477 185.88 91.6373C189.391 90.0302 192.409 88.7118 192.584 88.7118C192.762 88.7118 194.392 88.0055 196.207 87.1422C200.248 85.2211 200.295 85.2211 204.311 87.0669C206.098 87.8893 208.729 89.0476 210.157 89.6378C212.801 90.7333 220.731 94.2208 224.968 96.1544C226.256 96.7414 228.301 97.6612 229.518 98.198C230.73 98.7379 232.835 99.6827 234.195 100.304C235.551 100.926 237.715 101.836 239 102.332C240.287 102.825 243.795 104.338 246.795 105.694C249.798 107.05 252.719 108.362 253.293 108.607C253.864 108.855 256.392 110.01 258.909 111.178C261.428 112.346 263.795 113.303 264.172 113.303C264.549 113.303 265.148 113.655 265.503 114.088C265.859 114.518 266.482 114.873 266.885 114.873C267.29 114.873 270.424 116.163 273.851 117.742C277.28 119.321 280.664 120.761 281.368 120.937C282.076 121.116 282.653 121.474 282.653 121.728C282.653 121.986 282.983 122.196 283.386 122.196C283.788 122.196 285.599 122.871 287.411 123.693C289.226 124.516 291.879 125.709 293.307 126.343C296.572 127.79 309.849 134.401 310.198 134.752C310.338 134.897 314.613 137.122 319.69 139.699L328.925 144.383L330.603 143.381C333.091 141.9 336.34 140.045 337.157 139.649C337.55 139.454 339.783 138.193 342.118 136.84C344.453 135.487 347.241 133.961 348.31 133.449C351.79 131.786 353.761 133.17 313.316 108.883C307.454 105.364 299.035 100.307 294.608 97.6423C290.177 94.9773 286.201 92.601 285.771 92.3625C285.344 92.1239 281.717 90.0553 277.717 87.7638C260.689 78.017 252.205 73.1923 251.472 72.847C250.256 72.2757 246.184 69.956 237.4 64.8362C232.947 62.2433 228.972 59.9581 228.567 59.7603C227.31 59.1514 222.932 56.6527 215.614 52.3679C211.757 50.1109 207.903 47.8885 207.055 47.4302C206.204 46.9719 205.268 46.3064 204.975 45.9517C204.236 45.0539 201.539 44.6866 200.285 45.3113ZM57.8481 295.939C57.5893 296.344 57.2961 303.09 57.1933 310.931L57.0031 325.189H202.309H347.615V310.881V296.576L321.76 296.234C258.503 295.399 58.3314 295.173 57.8481 295.939Z" fill="#FCD404"/>
<path d="M73.5631 224.42C73.7684 215.366 73.6083 206.313 73.4169 197.263C73.2672 190.226 73.0932 183.185 72.7207 176.163C72.5707 173.289 71.7439 170.497 70.312 168.028C69.1181 165.964 67.2559 165.157 65.1605 164.841C62.4072 164.45 60.4023 163.09 59.4659 160.413C58.5296 157.736 58.9926 155.202 60.9627 153.074C61.7911 152.181 62.9467 152.242 63.9805 152.052C70.8272 150.796 77.7713 150.319 84.6667 149.464C88.8019 148.948 92.9927 148.836 97.1592 148.718C104.469 148.514 111.754 147.954 119.057 148.162C124.236 148.309 129.402 148.079 134.571 148.008C141.696 147.934 148.817 148.4 155.876 149.403C159.931 149.963 164.119 150.731 167.739 152.78C173.249 155.891 178.432 159.523 182.306 164.859C185.975 169.911 188.801 175.427 191.356 181.122C192.097 182.78 192.654 184.527 193.263 186.246C193.342 186.544 193.489 186.817 193.693 187.043C193.896 187.269 194.151 187.44 194.433 187.542C195.728 188.037 195.951 188.855 195.209 190.053C194.962 190.455 194.784 190.771 194.976 191.284C196.909 196.418 198.26 201.764 199.003 207.217C199.894 213.418 200.395 219.647 199.609 225.963C199.158 229.872 198.434 233.742 197.444 237.543C197.037 239.143 196.523 240.711 195.905 242.237C195.196 243.963 194.687 245.77 194.391 247.619C192.95 255.722 188.397 261.736 182.094 266.516C177.843 269.7 173.199 272.285 168.285 274.203C164.481 275.7 160.587 276.946 156.628 277.931C151.177 279.309 145.653 280.156 140.108 280.953C138.236 281.222 136.339 281.398 134.473 281.67C132.778 281.929 130.881 281.792 129.071 281.839C118.977 282.119 108.907 282.011 98.823 281.692C97.2219 281.642 95.7112 281.491 94.1379 281.333C89.0908 280.795 83.9949 280.712 78.9165 280.565C75.3487 280.465 71.7844 280.307 68.2479 279.894C66.5075 279.689 64.6801 279.223 63.2983 277.813C62.8941 277.43 62.6087 276.932 62.478 276.382C62.3473 275.833 62.3772 275.255 62.5638 274.723C63.26 272.538 64.3042 270.542 66.1386 269.078C67.5692 267.926 69.0833 266.875 70.1693 265.307C72.4249 262.049 73.3821 258.349 73.4482 254.448C73.584 246.195 73.5422 237.941 73.5735 229.688C73.57 227.915 73.5631 226.168 73.5631 224.42ZM112.513 249.18C113.056 249.087 113.585 248.653 114.135 248.908C115.447 249.511 115.597 248.714 115.618 247.691C115.618 247.024 115.67 246.356 115.663 245.692C115.663 245.125 115.238 244.885 114.929 245.294C114.017 246.485 112.743 247.422 112.328 248.983C112.186 249.087 112.067 249.206 112.266 249.342C112.294 249.371 112.429 249.241 112.513 249.18ZM151.069 253.964C151.766 253.853 151.86 253.189 152.114 252.701C153.753 249.45 155.8 246.432 157.244 243.062C155.292 245.47 153.45 247.978 152.048 250.756C151.571 251.696 150.77 252.719 151.097 253.985C150.798 253.985 150.638 254.114 150.655 254.423C150.655 254.481 150.76 254.588 150.784 254.581C151.087 254.488 151.003 254.186 151.069 253.964ZM93.1703 173.224C91.9033 174.178 90.6154 175.104 89.3727 176.094C86.0486 178.735 82.439 181.014 79.6266 184.326C79.0035 185.065 78.3596 186.052 77.5381 186.296C75.8987 186.784 76.0762 187.918 76.1458 189.12C76.1771 189.698 76.3059 190.272 76.3442 190.854C76.4208 192.12 76.9777 192.038 77.7365 191.413C78.028 191.219 78.2967 190.99 78.5371 190.732C82.2754 185.841 86.3062 181.211 90.3334 176.575C91.2906 175.47 92.2165 174.34 93.1529 173.22V173.173L93.1703 173.224ZM96.8181 198.501C99.0458 197.575 100.414 195.63 101.945 193.886C104.034 191.496 106.122 189.088 108.239 186.709C109.182 185.658 110.122 185.593 110.724 186.655C111.469 187.976 111.806 187.269 112.436 186.601C114.918 183.982 116.31 180.982 115.614 177.225C115.499 176.608 116.001 175.682 115.304 175.431C114.608 175.179 114.26 176.084 113.874 176.593C113.345 177.311 112.241 177.709 112.482 178.861C112.677 179.74 112.301 180.357 111.81 180.924C109.272 183.871 106.697 186.777 104.152 189.723C101.608 192.669 98.9309 195.325 96.7659 198.519L96.7276 198.727L96.5849 198.616L96.8181 198.501ZM118.747 213.773H119.029C119.029 227.312 119.012 240.855 119.05 254.394C119.033 256.582 119.209 258.767 119.575 260.922C120.317 265.077 123.366 267.639 127.651 267.801C130.087 267.891 132.524 267.83 134.96 267.704C135.525 267.678 136.069 267.482 136.527 267.141C139.502 264.96 142.092 262.269 144.184 259.185C145.521 257.265 146.913 255.277 147.512 253.006C147.933 251.287 148.491 249.606 149.179 247.982C149.576 247.088 150.157 246.238 150.349 245.301C151.045 241.889 151.887 238.483 152.176 235.006C152.884 227.068 153.061 219.088 152.705 211.125C152.225 201.727 151.894 192.325 149.75 183.135C149.204 180.795 149.078 178.183 147.662 176.281C146.245 174.379 145.897 172.05 144.707 170.069C143.363 167.841 142.012 165.709 139.938 164.145C137.863 162.58 135.559 161.816 133.046 161.249C128.869 160.302 125.04 161.098 121.309 162.91C120.146 163.474 119.321 164.195 119.784 165.717C119.876 165.95 119.898 166.207 119.846 166.453C119.795 166.7 119.672 166.924 119.495 167.098C118.695 167.762 118.75 168.638 118.75 169.542C118.748 184.281 118.747 199.025 118.747 213.773ZM103.171 249.88C105.224 247.831 107.372 245.872 109.3 243.701C110.748 242.068 112.506 241.648 114.393 241.953C115.712 242.165 115.719 241.67 115.715 240.661C115.677 232.185 115.67 223.71 115.653 215.234C115.653 212.456 115.653 209.675 115.625 206.894C115.625 206.535 115.806 205.979 115.301 205.857C114.862 205.753 114.674 206.216 114.459 206.575C114.173 207.023 113.763 207.4 113.547 207.877C113.261 208.505 111.876 208.929 112.798 209.75C113.575 210.45 113.028 211.376 113.641 212.022C115.068 213.526 114.995 214.444 113.641 216.002C112.461 217.372 111.371 218.826 110.25 220.25C110.045 220.516 109.711 220.806 109.996 221.183C110.243 221.503 110.543 221.219 110.825 221.144C112.092 220.81 113.22 221.722 112.983 222.978C112.704 224.467 112.408 225.96 111.657 227.305C111.093 228.314 110.574 229.343 110.049 230.37C109.909 230.639 109.7 230.937 109.972 231.231C110.067 231.321 110.191 231.371 110.32 231.371C110.449 231.371 110.573 231.321 110.668 231.231C111.437 230.682 112.151 230.513 112.819 231.403C113.488 232.293 113.286 233.111 112.708 233.973C110.905 236.657 108.705 239.043 107.083 241.867C105.631 244.426 103.992 246.902 103.171 249.88ZM95.6729 217.864C96.4088 217.679 97.0958 217.329 97.6848 216.838C99.9056 214.839 102.098 212.808 104.344 210.841C106.888 208.613 109.467 206.431 112.05 204.253C112.809 203.614 113.658 203.345 114.535 204.088C114.768 204.285 114.995 204.558 115.325 204.407C115.74 204.217 115.593 203.79 115.597 203.456C115.614 202.114 115.597 200.769 115.597 199.423C115.583 196.244 115.568 193.064 115.552 189.885C115.552 189.486 115.646 189.009 115.204 188.808C114.72 188.575 114.532 189.049 114.299 189.357C113.735 190.097 113.143 190.814 112.635 191.589C112.384 191.97 111.914 192.429 112.221 192.917C112.917 194.055 112.168 194.787 111.618 195.551C107.302 201.547 102.955 207.518 98.649 213.518C97.6987 214.875 96.5605 216.102 95.6729 217.875V217.864ZM182.737 186.522C180.555 187.649 178.825 189.034 177.085 190.409C172.56 193.965 168.529 198.127 163.781 201.368C161.748 202.757 159.824 204.465 157.196 204.597C156.447 204.637 156.604 205.24 156.607 205.703C156.64 209.052 156.682 212.41 156.733 215.775C156.733 216.095 156.573 216.569 157.081 216.64C157.533 216.705 157.603 216.256 157.777 215.955C159.317 213.204 161.086 210.596 163.064 208.161C168.39 201.533 174.589 195.766 180.35 189.569C181.161 188.715 182.233 188.033 182.737 186.533V186.522ZM95.572 152.073C93.2468 152.263 90.9182 152.432 88.6104 152.651C88.3948 152.667 88.1899 152.754 88.0257 152.899C86.1426 154.693 83.8731 155.97 81.8752 157.617C80.0826 159.096 78.29 160.581 76.5356 162.11C75.5645 162.953 74.8196 162.828 73.9808 161.877C73.0827 160.847 73.7615 160.266 74.4193 159.659C75.387 158.769 76.4034 157.933 77.371 157.04C77.6182 156.814 78.2691 156.681 77.8897 156.175C77.6321 155.841 77.1726 156.085 76.8454 156.347C74.8021 158.013 72.9026 159.858 71.1683 161.863C70.7645 162.318 70.7054 162.871 71.2518 163.083C72.7799 163.682 73.3403 165.099 73.8903 166.416C74.4089 167.622 74.8092 167.514 75.6307 166.75C80.4717 162.22 85.7926 158.267 91.4925 154.966C92.9057 154.155 94.5312 153.674 95.572 152.088V152.073ZM101.448 184.211C99.4879 184.965 97.6187 185.83 96.3447 187.294C90.0793 194.489 83.8383 201.694 77.8027 209.09C77.1517 209.89 76.7584 210.727 76.8872 211.785C76.9359 212.162 76.7341 212.679 77.197 212.862C77.6599 213.045 77.8653 212.6 78.1298 212.298C80.0443 210.102 81.9657 207.913 83.894 205.731C88.7079 200.266 93.6158 194.883 98.0364 189.067C99.2303 187.481 100.299 185.823 101.448 184.211ZM180.879 204.188C179.622 204.946 178.773 206.072 177.819 207.059C170.972 214.182 164.418 221.56 158.88 229.842C158.316 230.689 157.69 231.672 156.388 231.432C156.303 231.411 156.214 231.411 156.129 231.432C156.043 231.453 155.964 231.494 155.896 231.551C155.829 231.609 155.775 231.682 155.74 231.765C155.704 231.847 155.688 231.937 155.692 232.028C155.619 233.104 155.56 234.181 155.493 235.286C156.155 235.286 156.277 234.862 156.492 234.532C159.258 230.209 162.304 226.084 165.609 222.184C168.073 219.289 170.711 216.576 173.426 213.931C174.074 213.303 174.944 212.736 175.609 213.425C176.764 214.624 177.384 213.827 178.132 213.066C178.638 212.511 179.172 211.985 179.734 211.491C180.332 210.996 180.834 210.116 181.634 210.17C183.649 210.31 183.58 208.617 184.398 207.3C183.796 207.39 183.242 207.687 182.825 208.143C182.17 208.764 181.383 208.907 180.687 208.369C179.991 207.831 179.775 207.041 180.28 206.112C180.562 205.566 181.129 205.064 180.879 204.181V204.188ZM181.742 198.232L181.45 197.948C181.077 198.246 180.722 198.565 180.332 198.834C174.192 203.138 168.646 208.28 163.847 214.121C162.528 215.718 161.32 217.415 160.018 219.023C159.322 219.895 158.651 220.986 157.234 220.297C156.914 220.143 156.642 220.326 156.625 220.745C156.531 222.827 156.308 224.908 156.604 227.079C164.147 216.665 172.793 207.307 181.749 198.224L181.742 198.232ZM151.605 176.277C152.281 176.31 152.507 175.786 152.81 175.448C156.12 171.727 159.347 167.913 162.378 163.965C163.106 163.018 163.84 162.081 164.554 161.127C164.711 160.922 164.857 160.628 164.631 160.409C164.356 160.122 164.192 160.474 163.983 160.592C159.068 163.413 154.348 166.56 149.611 169.682C148.971 170.102 148.716 170.579 148.977 171.476C149.472 173.166 150.989 174.282 151.268 176.066C151.285 176.152 151.532 176.227 151.605 176.277ZM113.404 162.469C102.614 168.386 96.2995 178.847 88.8158 188.123C98.5585 181.147 105.322 171.149 113.404 162.469ZM188.467 206.664C189.581 206.359 190.019 205.588 190.59 204.999C191.387 204.196 192.212 203.941 193.135 204.666C194.134 205.451 193.848 206.316 193.235 207.239C191.325 210.109 189.128 212.811 188.074 216.098C188.324 215.876 188.662 215.6 188.972 215.295C190.917 213.378 192.72 211.276 194.847 209.603C196.121 208.599 196.031 207.719 195.766 206.424C195.001 202.617 194.049 198.852 192.912 195.145C192.25 192.992 192.073 192.906 190.548 194.471C190.2 194.83 189.535 195.067 189.8 195.73C190.023 196.287 190.618 196.297 191.14 196.387C192.807 196.674 193.267 197.822 192.407 199.283C191.043 201.612 189.723 203.969 188.467 206.664ZM83.5599 248.696C84.3813 247.82 85.0322 246.704 86.3758 246.564C86.602 246.539 86.8248 246.159 86.9989 245.908C91.7373 239.13 96.6348 232.473 101.691 225.934C102.026 225.43 102.326 224.903 102.589 224.355C101.726 224.9 100.937 225.56 100.243 226.318C97.5619 229.121 95.1024 232.14 92.8883 235.347C92.3314 236.14 91.677 236.657 90.6815 236.158C90.0062 235.799 89.6373 236.183 89.3101 236.732C87.1948 240.258 85.2728 243.904 83.5529 247.652C83.3928 247.964 83.1874 248.283 83.5599 248.696ZM165.978 246.902C167.06 246.216 167.829 244.996 168.72 243.927C172.986 238.743 177.502 233.784 182.25 229.067C183.705 227.632 184.405 225.794 185.484 223.875C184.784 224.08 184.164 224.507 183.712 225.095C183.263 225.593 182.748 226.139 182.045 225.945C180.872 225.622 180.304 226.304 179.723 227.14C177.482 230.316 175.198 233.467 172.932 236.617C170.478 240.008 168.01 243.389 165.978 246.905V246.902ZM139.921 152.274C139.287 151.887 138.796 152.034 138.33 151.976C136.367 151.736 134.431 152.615 132.503 152.267C128.963 151.621 125.406 152.041 121.862 151.908C121.605 151.864 121.342 151.874 121.088 151.935C120.834 151.997 120.594 152.11 120.383 152.267C118.479 153.979 116.345 155.421 114.702 157.477C116.112 157.097 117.504 156.76 118.879 156.333C119.861 156.017 120.693 156.107 121.347 156.943C121.883 157.632 122.325 157.442 122.858 156.943C123.627 156.225 124.132 155.238 125.037 154.657C127.695 152.94 130.792 152.087 133.927 152.21C135.006 152.246 136.2 152.253 137.011 153.286C137.334 153.706 137.797 153.598 138.198 153.358C138.734 153.046 139.284 152.69 139.921 152.274ZM97.3681 249.934C96.8569 250.105 96.396 250.406 96.028 250.81C92.6725 254.247 89.5468 257.9 86.3236 261.464C85.2341 262.666 85.4395 264.187 84.7712 265.454C86.8248 263.635 87.9456 263.9 88.8541 266.05C91.5204 260.477 94.4407 255.205 97.3681 249.934ZM112.683 152.375C112.617 152.016 112.44 151.94 112.276 151.94C110.24 151.94 108.2 151.915 106.164 151.94C105.902 151.948 105.652 152.06 105.468 152.253C103.48 154.718 100.974 156.559 98.5307 158.497C98.2209 158.741 97.8763 158.945 98.1826 159.465C98.6594 160.312 98.3183 160.965 97.7057 161.619C97.1849 162.09 96.8198 162.717 96.6615 163.413C101.691 159.265 107.057 155.572 112.701 152.375H112.683ZM77.1448 230.327C77.1448 232.48 77.1448 234.633 77.1448 236.786C77.1448 237.17 76.9986 237.687 77.4511 237.862C78.0045 238.074 78.0219 237.46 78.1855 237.145C80.5296 232.617 83.1926 228.273 86.153 224.147C86.3305 223.903 86.6229 223.634 86.3305 223.34C86.0382 223.046 85.7771 223.365 85.5439 223.537C83.9984 224.682 82.4564 225.837 80.9145 226.986C80.6514 227.224 80.3201 227.368 79.9708 227.394C79.6214 227.421 79.2733 227.329 78.9792 227.133C77.9349 226.448 77.8479 225.737 78.5893 224.56C78.8747 224.108 79.6335 223.605 78.913 223.006C78.5101 222.742 78.0225 222.652 77.5555 222.755C77.0404 222.866 77.1413 223.473 77.1378 223.9C77.1378 226.031 77.1413 228.181 77.1448 230.327ZM187.854 244.889C187.276 245.011 187.088 245.463 186.761 245.732C184.99 247.192 184.151 249.855 181.446 250.131C181.286 250.131 181.119 250.411 181.011 250.594C179.925 252.482 178.025 253.87 177.805 256.296C177.77 256.655 177.321 257.014 177.057 257.373C175.508 259.418 173.775 261.32 172.633 264.101C173.228 263.516 173.583 263.193 173.914 262.842C176.984 259.612 179.64 256.024 182.306 252.464C182.859 251.725 183.35 251.158 184.328 251.427C184.826 251.563 185.056 251.201 185.223 250.838C186.107 248.893 187.318 247.113 187.854 244.889ZM177.224 186.203C178.181 185.561 179.117 184.879 180.103 184.28C181.911 183.124 183.846 182.194 185.867 181.509C186.5 181.312 187.624 181.215 187.085 179.966C186.339 178.157 185.454 176.412 184.436 174.749C184.231 174.422 184.022 174.114 183.622 174.458C182.149 175.721 180.524 176.819 179.292 178.578C179.576 178.438 179.849 178.276 180.11 178.093C180.778 177.515 181.464 177.185 182.128 178.039C182.793 178.893 182.912 179.74 182.17 180.594C181.822 180.996 181.436 181.359 181.077 181.746C179.741 183.182 178.212 184.423 177.224 186.203ZM76.9429 268.379C78.7842 266.147 80.8971 264.23 82.2337 261.435C83.5076 258.765 85.7423 256.587 87.5662 254.197C89.3345 251.879 91.1166 249.572 92.8814 247.25C93.1076 246.948 93.4627 246.557 93.0589 246.191C92.6551 245.825 92.3627 246.256 92.0982 246.55C91.3777 247.383 90.7059 248.247 89.9575 249.062C84.7971 254.871 80.4142 261.367 76.9255 268.375L76.9429 268.379ZM155.295 189.207C155.393 189.153 155.539 189.117 155.608 189.024C157.06 187.046 159.388 185.866 160.287 183.379C160.749 182.094 161.407 180.867 161.982 179.64C162.093 179.399 162.295 179.127 162.069 178.922C161.769 178.635 161.505 178.922 161.292 179.13C159.186 181.115 156.9 182.887 154.467 184.423C154.098 184.664 153.722 185.001 153.84 185.5C154.077 186.537 154.366 187.563 154.669 188.586C154.694 188.745 154.768 188.892 154.881 189.004C154.994 189.116 155.14 189.187 155.295 189.207ZM156.367 201.845C157.759 201.038 158.522 199.968 159.221 198.974C158.49 199.111 157.645 199.624 156.928 198.684C156.673 198.4 156.527 198.03 156.516 197.644C156.505 197.257 156.63 196.88 156.868 196.581C157.858 195.174 158.941 193.84 160.109 192.587C162.051 190.502 163.997 188.406 166.026 186.386C166.319 186.095 166.792 185.668 166.444 185.252C165.991 184.732 165.602 185.288 165.267 185.611C163.409 187.441 161.902 189.558 160.454 191.74C159.434 193.272 159.214 193.337 157.505 192.673C156.444 192.257 155.417 192.964 155.462 194.033C155.574 196.599 156.388 199.043 156.371 201.845H156.367ZM87.3713 168.114C85.9616 168.867 85.0357 169.886 84.1203 170.877C81.9935 173.184 79.2994 174.759 77.0056 176.852C75.8952 177.863 75.3905 178.872 75.8116 180.34C75.9056 180.666 75.7177 181.14 76.118 181.294C76.6122 181.481 76.7619 180.935 77.0021 180.666C79.7867 177.439 82.5713 174.209 85.3559 170.977C86.0869 170.138 86.8666 169.348 87.3748 168.117L87.3713 168.114ZM164.251 167.141C167.732 165.455 170.903 163.305 174.725 162.684C175.501 162.559 175.132 162.013 174.798 161.733C173.663 160.775 172.49 159.86 171.317 158.938C171.239 158.857 171.144 158.796 171.04 158.758C170.936 158.721 170.825 158.708 170.715 158.722C170.605 158.735 170.5 158.774 170.407 158.836C170.314 158.898 170.236 158.981 170.179 159.078C168.204 161.764 166.229 164.453 164.255 167.145L164.251 167.141ZM174.519 174.164C174.613 174.152 174.705 174.129 174.794 174.096C176.956 172.944 179.267 172.194 181.547 171.354C182.121 171.146 182.069 170.687 181.822 170.277C181.064 168.922 180.184 167.642 179.194 166.456C178.578 165.738 178.15 165.993 177.917 166.815C177.657 167.62 177.297 168.388 176.845 169.097C176.016 170.561 175.191 172.029 174.338 173.475C174.116 173.837 173.959 174.092 174.519 174.164ZM155.375 158.267C154.857 158.012 154.474 158.267 154.101 158.443C151.55 159.635 149.104 161.055 146.792 162.684C144.703 164.227 144.647 164.12 146.207 166.179C146.691 166.822 147 166.797 147.526 166.255C149.458 164.267 151.431 162.325 153.374 160.348C154.039 159.695 154.902 159.225 155.389 158.281L155.375 158.267ZM88.4364 231.191C89.2648 231.292 89.8844 231.148 90.323 231.579C90.9704 232.207 91.3672 231.895 91.7814 231.285C93.0275 229.508 94.3642 227.797 95.572 225.992C96.9817 223.878 98.649 221.948 99.7489 219.608C95.9131 223.261 92.1504 226.993 88.4364 231.191ZM181.23 193.739L181.432 193.965C181.881 193.714 182.334 193.466 182.779 193.208C184.774 192.052 186.73 190.825 188.763 189.752C190.503 188.848 190.621 188.675 189.884 186.802C189.751 186.472 189.661 186.121 189.511 185.805C189.163 185.055 188.711 184.911 188.15 185.622C187.412 186.555 186.681 187.495 185.908 188.392C184.363 190.186 182.793 191.959 181.23 193.739ZM135.831 274.023C134.386 274.637 133.394 275.688 132.225 276.41C130.968 277.177 130.369 277.127 129.75 275.778C129.311 274.834 128.608 274.838 128.062 275.172C126.642 276.015 125.325 277.028 124.135 278.189C124.361 278.315 124.483 278.419 124.577 278.423C127.305 278.538 130.036 278.48 132.757 278.25C132.976 278.237 133.188 278.173 133.38 278.063C133.571 277.954 133.737 277.802 133.864 277.619C134.598 276.535 135.503 275.548 135.831 274.023ZM152.834 261.614C149.437 266.843 145.852 271.935 142.242 277.009C146.736 272.588 151.003 267.998 152.834 261.614ZM97.3228 265.734C100.027 262.038 101.956 258.245 103.825 254.398C101.684 256.684 99.6758 259.063 97.6744 261.449C97.5073 261.65 97.3089 261.955 97.469 262.167C98.2452 263.29 97.5804 264.32 97.3228 265.734ZM114.41 264.535L115.061 264.309C116.516 263.785 117.497 264.564 117.264 266.104C117.139 266.669 116.944 267.215 116.683 267.729C116.102 269.082 115.249 270.334 115.162 272.035C116.697 271.106 117.483 269.591 118.643 268.468C119.186 267.941 119.203 267.449 118.834 266.807C118.002 265.354 117.149 263.911 116.77 262.228C116.686 261.869 116.669 261.302 116.022 261.191C115.59 262.368 114.685 263.276 114.41 264.535ZM167.196 176.392C167.976 176.392 168.205 175.893 168.491 175.553C169.751 174.08 170.924 172.531 172.003 170.913C172.84 169.668 173.586 168.361 174.234 167.001C174.387 166.678 174.61 166.284 173.969 166.262C173.629 166.239 173.287 166.288 172.965 166.408C172.644 166.528 172.35 166.714 172.102 166.957C171.855 167.199 171.658 167.492 171.525 167.816C171.393 168.141 171.326 168.49 171.331 168.842C171.331 169.474 171.38 170.13 170.805 170.55C168.828 171.982 168.567 174.458 167.196 176.392ZM72.8286 268.917C72.8634 268.465 72.947 268.149 72.7207 267.977C72.4945 267.804 72.2195 268.009 72.0594 268.214C70.319 270.367 68.4811 272.444 67.1062 274.884C66.7825 275.451 67.0157 275.918 67.517 276.248C68.5786 276.944 69.6402 276.56 70.1101 275.337C70.2668 274.924 70.4582 274.529 70.6323 274.124L72.8286 268.917ZM175.365 224.98C175.98 224.606 176.545 224.151 177.046 223.627C178.536 222.134 180.002 220.609 181.571 219.22C182.87 218.072 182.849 218.269 181.537 217.258C180.659 216.586 180.287 217.013 179.911 217.616C178.435 220.024 176.646 222.22 175.365 224.98ZM175.971 244.024L176.281 244.332C177.189 243.442 178.574 243.231 179.281 242.079C180.74 239.7 182.142 237.281 183.552 234.87C183.663 234.679 183.858 234.385 183.357 234.123L175.971 244.024ZM110.849 260.251C112.311 259.497 113.185 258.116 114.354 257.086C115.656 255.941 115.844 254.556 115.52 252.977C115.458 252.654 115.632 252.166 115.172 252.083C114.755 252.012 114.629 252.442 114.459 252.747C113.394 254.692 112.297 256.623 111.26 258.582C110.999 259.052 110.557 259.529 110.849 260.251ZM99.9821 270.094C97.2776 271.888 95.8748 274.544 94.2215 276.977C93.8177 277.572 94.131 277.913 94.7227 277.988C95.384 278.075 95.9375 278.014 96.3691 277.271C97.6956 274.946 98.9016 272.55 99.9821 270.094ZM148.563 276.166C150.725 276.026 152.667 275.286 154.669 274.859C155.017 274.784 155.208 274.425 155.319 274.073C155.45 273.506 155.705 272.977 156.064 272.527C156.214 272.362 156.336 272.132 156.176 271.931C155.949 271.644 155.734 271.877 155.504 271.996C153.764 272.879 152.1 273.912 150.283 274.644C149.554 274.926 148.944 275.465 148.563 276.166ZM68.3663 154.747C66.5563 154.98 65.0352 155.045 63.5907 155.418C62.8075 155.615 62.435 156.494 62.7657 157.388C62.9746 157.951 63.3018 158.748 64.0571 158.267C65.512 157.341 67.1132 156.58 68.3663 154.747ZM115.447 167.823C115.447 167.342 115.447 167.073 115.447 166.807C115.447 166.542 115.517 166.219 115.207 166.111C115.077 166.082 114.942 166.092 114.818 166.142C114.694 166.192 114.587 166.279 114.511 166.391C113.425 167.6 112.332 168.799 111.256 170.012C111.121 170.163 110.863 170.371 111.006 170.575C111.148 170.78 111.483 170.744 111.723 170.651C112.489 170.349 113.22 169.876 114.006 169.746C115.322 169.535 115.666 168.817 115.447 167.823ZM90.2325 271.888C88.4921 273.234 87.1903 274.963 85.7353 276.535C85.5021 276.786 85.2132 277.081 85.436 277.468C85.6205 277.78 85.979 277.673 86.2749 277.698C86.6751 277.73 87.1102 277.716 87.3574 277.371C88.5687 275.695 89.686 273.951 90.2325 271.895V271.888ZM160.711 272.965C163.792 272.896 165.995 270.686 165.786 268.009C164.07 269.617 162.298 270.998 160.711 272.979V272.965ZM192.574 219.138C192.745 219.177 192.835 219.231 192.901 219.206C193.028 219.178 193.144 219.113 193.235 219.019C194.057 217.889 194.917 217.566 196.041 218.661C196.514 219.127 196.737 218.661 196.72 218.198C196.681 217.039 196.601 215.88 196.532 214.72C196.514 214.448 196.452 214.161 196.166 214.067C195.818 213.96 195.609 214.193 195.428 214.466C194.962 215.165 194.475 215.851 194.036 216.554C193.479 217.369 192.731 218.072 192.574 219.134V219.138ZM126.753 271.411C126.304 271.052 125.855 271.124 125.447 271.027C124.569 270.841 123.703 270.593 122.858 270.284C122.485 270.141 122.221 269.591 121.747 269.961C121.53 270.13 121.374 270.37 121.305 270.641C121.236 270.913 121.258 271.2 121.368 271.457L121.831 271.206C123.345 270.359 123.919 270.553 124.462 272.233C124.657 272.839 124.932 272.728 125.329 272.57C125.896 272.34 126.227 271.82 126.753 271.411ZM132.973 155.583C130.905 155.672 128.949 156.125 127.386 157.711C129.374 157.442 131.504 157.567 132.959 155.59L132.973 155.583ZM104.431 274.056C103.181 274.989 102.433 276.187 101.559 277.256C101.333 277.533 100.765 277.863 101.058 278.215C101.479 278.71 102.189 278.387 102.774 278.437C103.143 278.466 103.55 278.319 103.47 277.87C103.23 276.506 104.183 275.473 104.424 274.063L104.431 274.056ZM144.341 158.866C143.353 159.293 142.555 159.623 141.769 159.979C141.476 160.115 140.902 159.979 140.937 160.427C140.993 161.037 141.595 161.321 142.054 161.636C142.129 161.685 142.213 161.716 142.301 161.727C142.388 161.738 142.477 161.729 142.561 161.701C142.645 161.672 142.721 161.625 142.785 161.562C142.849 161.5 142.899 161.423 142.931 161.339C143.335 160.574 144.042 159.993 144.334 158.87L144.341 158.866ZM77.5346 273.137C76.299 273.901 75.7594 274.931 75.0494 275.807C74.7848 276.13 74.1374 276.524 74.67 276.937C74.7834 277.028 74.9143 277.093 75.054 277.128C75.1937 277.163 75.339 277.167 75.4802 277.139C75.6215 277.112 75.7554 277.054 75.8732 276.969C75.9909 276.884 76.0898 276.774 76.1632 276.646C76.7132 275.624 77.3989 274.64 77.5346 273.137ZM161.4 158.113C162.5 157.47 163.607 156.839 164.693 156.178C164.944 156.024 165.529 156.024 165.264 155.504C164.999 154.984 164.502 155.041 164.115 155.292C163.029 156.003 162.034 156.835 161.4 158.113ZM152.977 155.267L156.994 153.652C154.662 152.59 154.47 152.655 152.977 155.267ZM172.045 251.965C170.513 252.414 169.688 253.831 168.505 254.771C168.278 254.951 167.962 255.223 168.264 255.536C168.329 255.598 168.405 255.646 168.489 255.676C168.572 255.706 168.661 255.717 168.749 255.708C168.837 255.7 168.922 255.672 168.999 255.627C169.076 255.581 169.142 255.52 169.194 255.446C170.172 254.301 171.428 253.397 172.045 251.965ZM79.6266 200.115C78.6763 200.474 78.0393 201.3 77.19 201.784C76.5913 202.118 76.7897 202.699 76.8002 203.219C76.8002 203.37 76.929 203.632 77.023 203.643C77.5694 203.711 77.6669 203.151 77.928 202.843C78.5982 202.007 79.1685 201.091 79.6266 200.115ZM110.954 174.673C109.993 174.77 109.196 175.294 108.437 175.861C108.172 176.062 107.393 176.159 107.88 176.755C108.186 177.135 108.851 177.397 109.231 176.855C109.77 176.084 110.647 175.599 110.954 174.673ZM195.839 230.388C194.795 230.707 194.621 231.622 194.231 232.333C194.067 232.63 193.671 233.079 194.276 233.323C194.777 233.528 195.237 233.402 195.373 232.76C195.526 232.02 195.672 231.278 195.839 230.388ZM108.068 278.491C108.538 278.398 109.244 278.695 109.331 277.927C109.424 277.186 109.615 276.462 109.899 275.774C110.007 275.494 110.097 275.121 109.77 274.938C109.443 274.755 109.269 275.157 109.039 275.322C108.284 275.861 108.138 276.808 107.626 277.504C107.434 277.766 106.857 277.795 107.024 278.222C107.191 278.649 107.713 278.398 108.068 278.491ZM114.149 278.491H114.65C115.371 278.473 115.534 277.902 115.694 277.35C115.774 277.099 115.914 276.754 115.663 276.632C115.099 276.331 114.911 277.059 114.483 277.192C114.287 277.278 114.108 277.4 113.954 277.551C113.703 277.755 113.181 277.816 113.331 278.268C113.481 278.721 113.94 278.455 114.149 278.484V278.491ZM76.6296 251.524C76.6296 252.13 76.6087 252.403 76.6296 252.668C76.661 252.998 76.5008 253.487 76.9777 253.562C77.3258 253.623 77.3641 253.167 77.4824 252.894C77.8305 252.08 78.1786 251.269 78.5267 250.454C78.6137 250.246 78.6937 250.024 78.5267 249.826C78.3596 249.629 78.1786 249.783 77.9558 249.826C76.9429 250.124 76.4312 250.731 76.6296 251.524ZM136.593 158.454C137.86 158.841 138.006 158.737 138.222 157.287C137.164 157.528 137.164 157.528 136.593 158.454ZM77.552 240.733C76.9359 240.895 76.9673 241.451 77.016 241.889C77.0717 242.43 76.6122 243.349 77.4476 243.421C78.189 243.485 78.2099 242.448 78.4327 241.903C78.6554 241.358 78.0916 240.984 77.552 240.733ZM132.67 271.877C132.666 271.785 132.641 271.695 132.597 271.614C132.553 271.534 132.491 271.465 132.417 271.413C132.342 271.362 132.257 271.33 132.168 271.318C132.079 271.307 131.989 271.318 131.904 271.35C131.313 271.479 130.39 271.023 130.324 272.168C130.3 272.588 130.359 273.184 130.954 273.112C131.699 273.022 132.231 272.487 132.67 271.877ZM148.313 152.741C148.059 152.109 147.474 152.278 147.007 152.307C146.475 152.342 145.726 153.537 146.036 153.742C146.614 154.119 147.039 153.43 147.575 153.383C147.909 153.351 148.271 153.24 148.313 152.726V152.741ZM76.3686 171.268C76.4382 170.873 76.2189 170.769 75.9335 170.776C75.561 170.776 75.1155 170.748 75.032 171.271C75.0105 171.358 75.0069 171.448 75.0211 171.535C75.0354 171.623 75.0673 171.707 75.1149 171.781C75.1624 171.856 75.2245 171.919 75.2971 171.967C75.3697 172.015 75.4513 172.047 75.5367 172.061C76.0692 172.133 76.1841 171.62 76.3686 171.268Z" fill="white"/>
<path d="M325.532 166.325C325.493 171.099 325.562 175.882 324.867 180.606C324.501 183.105 324.105 185.622 322.87 187.853C321.439 190.466 319.289 190.773 317.052 188.874C315.268 187.36 314.353 185.34 313.601 183.133C312.083 178.589 310.752 173.947 308.145 169.895C305.776 166.218 302.614 163.93 298.667 162.552C295.227 161.387 291.667 160.68 288.066 160.449C284.598 160.192 281.18 160.51 277.898 161.827C277.057 162.202 276.249 162.654 275.482 163.18C275.149 163.402 274.693 163.716 274.6 164.08C273.967 166.518 272.33 168.389 271.448 170.684C271.088 171.62 270.782 172.434 271.96 172.991C272.219 173.107 272.429 173.32 272.551 173.59C272.674 173.86 272.7 174.168 272.626 174.458C272.293 175.654 272.896 176.414 273.575 177.146C276.804 180.608 280.252 183.829 283.892 186.785C288.828 190.772 293.952 194.481 299.246 197.899C303.24 200.519 307.33 202.972 311.411 205.439C315.924 208.166 320.67 210.437 325.013 213.489C328.674 216.049 330.918 219.619 331.756 224.378C332.694 229.629 333.104 234.973 332.978 240.318C332.785 248.226 330.062 255.12 325.656 261.317C321.525 267.115 316.08 271.103 310.013 274.17C305.729 276.333 301.229 277.811 296.656 279.128C288.372 281.517 279.981 282.159 271.468 281.652C271.384 281.652 271.288 281.613 271.221 281.652C269.737 282.388 268.502 281.849 267.158 281.035C265.463 280.007 263.433 279.964 261.593 279.203C258.852 278.06 256.236 276.599 253.791 274.848C252.586 273.995 251.518 274.048 250.306 274.748C248.06 276.044 246.133 277.815 244.136 279.471C243.128 280.257 241.963 280.779 240.734 280.995C239.599 281.249 238.757 280.574 238.128 279.567C237.09 277.922 236.88 275.997 236.617 274.12C235.516 266.355 235.082 258.499 235.319 250.65C235.459 246.505 235.905 242.389 236.381 238.276C236.457 237.619 236.65 237.016 237.286 236.805C237.603 236.687 237.947 236.676 238.27 236.775C238.593 236.874 238.879 237.078 239.09 237.359C240.342 238.862 241.247 240.625 242.252 242.307C244.312 245.752 246.246 249.29 248.443 252.628C250.732 256.087 253.205 259.382 256.237 262.135C259.536 265.127 263.523 266.565 267.624 267.522C272.869 268.743 278.211 269.414 283.599 268.904C288.512 268.44 293.085 267.033 296.839 263.245C301.589 258.454 301.998 252.599 298.523 246.869C295.352 241.643 291.018 237.759 286.099 234.567C280.191 230.736 273.811 227.952 267.544 224.928C261.153 221.833 254.866 218.52 249.152 214.125C243.886 210.076 239.123 205.446 235.785 199.384C232.224 192.922 231.126 185.929 232.703 178.653C234.034 172.584 237.383 167.689 241.62 163.509C246.419 158.775 252.027 155.533 258.145 153.155C267.078 149.689 276.287 148.643 285.706 149.1C291.274 149.371 296.726 150.549 302.214 151.513C305.907 152.206 309.696 152.02 313.314 150.967C315.644 150.253 317.794 149.114 320.021 148.161C321.186 147.661 322.617 148.347 323.682 149.921C324.94 151.712 325.606 153.901 325.576 156.144C325.509 159.546 325.532 162.934 325.532 166.325ZM296.417 217.234C297.082 217.263 297.645 216.763 298.247 217.234C299.009 217.838 299.698 217.534 300.444 217.113C303.226 215.542 306.042 214.039 308.821 212.472C309.753 211.944 310.329 212.379 310.818 213.122C311.361 213.928 311.151 214.66 310.452 215.214C310.001 215.53 309.534 215.818 309.051 216.074C305.832 218.066 302.591 220.03 299.732 222.593C299.485 222.814 299.009 223.021 299.236 223.389C299.539 223.875 299.868 223.389 300.158 223.189C303.587 220.693 307.154 218.421 310.838 216.385C312.048 215.72 313.296 215.139 314.576 214.646C315.298 214.36 315.94 214.646 316.35 215.453C316.706 216.149 316.666 216.795 316.113 217.238C315.504 217.745 315.654 217.916 316.203 218.345C317.704 219.519 317.611 220.519 316.053 221.604C315.015 222.318 313.84 222.861 313.038 223.975C313.655 223.754 314.254 223.48 314.829 223.153C316.626 222.154 318.42 221.148 320.211 220.137C320.919 219.741 321.765 219.719 322.104 220.451C322.74 221.822 323.402 221.279 324.168 220.747C324.572 220.435 325.001 220.161 325.449 219.93C326.588 219.426 326.491 218.88 325.639 218.116C323.525 216.224 321.116 214.839 318.726 213.436C314.067 210.708 309.38 208.081 304.714 205.396C303.895 204.921 303.289 204.732 302.92 205.946C302.824 206.271 302.408 206.51 302.108 206.738C300.777 207.742 299.405 208.656 298.154 209.748C297.135 210.637 295.964 211.387 295.175 212.665C295.351 212.715 295.536 212.721 295.714 212.682C295.892 212.643 296.06 212.56 296.204 212.44C298.723 210.905 301.273 209.423 303.782 207.863C304.641 207.331 305.373 207.277 305.949 208.188C306.525 209.098 306.212 209.973 305.406 210.608C304.408 211.383 303.343 212.097 302.311 212.84C300.331 214.264 298.214 215.467 296.417 217.234ZM234.92 183.44C235.918 182.469 236.281 181.134 236.917 179.967C237.676 178.564 237.865 176.457 240.129 176.711C240.345 176.736 240.601 176.389 240.831 176.211C245.081 172.876 249.308 169.51 253.708 166.408C256.235 164.627 258.769 162.856 261.31 161.095C262.012 160.613 262.149 159.978 261.772 159.282C261.313 158.428 260.867 159.314 260.584 159.499C256.081 162.502 250.839 163.366 246.369 166.408C244.828 167.454 243.121 169.235 242.468 171.616C240.784 172.091 240.089 173.076 239.406 174.472C239.12 175.058 238.541 175.479 237.945 175.154C237.07 174.676 236.853 175.276 236.584 175.886C236.314 176.496 236.085 177.011 235.872 177.589C235.174 179.446 234.849 181.44 234.92 183.44ZM315.328 156.861C314.763 156.975 314.22 157.189 313.72 157.493C311.416 158.795 309.183 160.236 307.031 161.809C305.935 162.577 305.1 162.166 304.837 160.788C304.759 160.308 304.561 159.859 304.266 159.488C303.97 159.118 303.587 158.839 303.156 158.682C302.281 158.389 301.392 158.996 300.534 159.66C303.755 161.213 306.694 162.93 309.027 165.604C309.6 166.261 310.086 166.108 310.668 165.729C313.358 163.973 316.067 162.252 318.739 160.463C319.838 159.728 320.883 159.089 322.281 160.267C322.281 157.468 321.648 155.101 320.836 152.541C320.424 153.355 320.357 154.077 319.838 154.501C319.392 154.858 319.545 155.215 319.738 155.665C320.404 157.215 320.277 157.672 318.939 158.653C316.789 160.238 314.612 161.759 312.476 163.387C311.62 164.044 310.955 164.215 310.249 163.237C309.543 162.259 309.706 161.549 310.562 160.845C311.018 160.467 311.504 160.106 311.926 159.71C312.978 158.732 314.449 158.296 315.328 156.861ZM284.315 152.02C282.594 152.156 280.85 151.449 279.898 153.491C279.812 153.68 279.482 153.77 279.249 153.848C278.71 154.027 278.311 154.334 278.457 154.99C278.647 155.822 279.229 155.415 279.679 155.347C281.622 155.04 283.376 154.077 285.237 153.477C286.542 153.052 287.114 153.313 287.46 154.683C287.647 155.426 288.043 155.397 288.575 155.358C290.289 155.287 291.903 154.673 293.598 154.434C295.065 154.226 295.764 154.705 295.814 156.283C295.844 157.165 296.147 157.115 296.726 156.94C297.202 156.793 297.698 156.722 298.181 156.583C299.179 156.308 300.178 156.015 301.176 155.719C301.459 155.633 301.805 155.469 301.802 155.151C301.802 154.644 301.329 154.762 301.033 154.705C300.424 154.587 299.791 154.569 299.189 154.416C294.223 153.159 289.221 152.199 284.315 152.02ZM273.541 192.155C274.496 192.215 275.269 191.609 276.111 191.28C277.655 190.673 279.312 190.812 280.86 190.298C281.136 190.205 281.466 190.173 281.562 189.823C281.676 189.406 281.283 189.345 281.08 189.152C279.299 187.489 277.509 185.839 275.738 184.154C273.967 182.469 273.994 182.476 272.223 184.094C270.276 185.879 268.359 187.664 266.429 189.449C267.191 189.519 267.958 189.396 268.669 189.092C270.459 188.224 272.383 187.856 274.234 187.214C274.546 187.075 274.896 187.066 275.215 187.187C275.533 187.308 275.799 187.552 275.961 187.871C276.155 188.168 276.243 188.53 276.207 188.891C276.172 189.252 276.016 189.587 275.768 189.834C275.325 190.3 274.85 190.728 274.347 191.116C273.977 191.441 273.591 191.662 273.541 192.155ZM241.676 194.379C242.225 194.872 243.027 194.561 243.4 195.154C244.066 196.203 244.648 195.753 245.321 195.154C249.102 191.758 252.903 188.392 256.693 185.007C258.194 183.669 259.689 182.312 261.18 180.963L260.967 180.652C254.151 184.536 247.973 189.459 241.676 194.393V194.379ZM255.089 270.878C256.237 270.596 256.837 269.875 257.575 269.4C258.411 268.857 259.293 268.593 259.972 269.671C260.228 270.078 260.488 270.467 260.947 270.171C261.31 269.935 261.922 269.814 261.922 269.286C261.922 268.829 261.356 268.682 260.99 268.504C257.329 266.719 254.254 264.027 251.425 261.007C250.929 260.478 250.563 260.161 250.053 260.921C249.641 261.535 249.388 262.063 250.326 262.431C250.541 262.527 250.725 262.689 250.855 262.896C250.985 263.102 251.056 263.346 251.059 263.595C251.085 264.234 251.415 264.634 251.788 265.077C252.646 266.101 252.566 266.683 251.658 267.69C250.683 268.761 249.388 269.475 248.313 271.021C250.03 269.95 251.455 269.121 252.836 268.211C253.628 267.69 254.44 267.229 255.216 267.993C256.048 268.829 255.871 269.828 255.089 270.892V270.878ZM262.651 188.192C262.464 188.111 262.261 188.086 262.062 188.118C261.863 188.15 261.676 188.238 261.519 188.374C260.248 189.202 258.95 189.991 257.675 190.816C253.954 193.227 250.312 195.766 246.749 198.434C245.85 199.113 246.309 199.805 246.369 200.534C246.422 201.205 246.868 201.248 247.368 201.226C248.083 201.226 248.699 201.151 248.762 200.155C248.792 199.527 249.308 199.277 249.691 198.97C251.714 197.353 253.794 195.81 255.795 194.158C258.068 192.269 260.441 190.502 262.651 188.192ZM324.018 233.378C324.662 233.331 325.275 233.069 325.772 232.628C326.528 232.032 327.283 231.807 327.982 232.628C328.681 233.45 328.844 234.239 327.942 235.049C327.609 235.342 327.393 235.695 327.942 236.12C329.646 237.377 329.606 238.051 327.942 239.461C326.478 240.7 325.06 242 323.645 243.303C323.402 243.531 322.853 243.756 323.146 244.22C323.386 244.602 323.875 244.352 324.181 244.192C325.696 243.385 327.177 242.467 328.701 241.693C329.606 241.247 329.863 240.59 329.883 239.597C329.999 235.546 329.786 231.492 329.247 227.48C328.864 224.849 328.758 224.781 326.771 226.359C326.704 226.413 326.651 226.499 326.578 226.527C325.546 226.963 325.785 227.398 326.468 228.059C327.656 229.205 327.573 229.869 326.381 230.993C325.629 231.707 324.584 232.096 324.018 233.378ZM269.903 197.706C266.905 198.96 264.031 200.534 261.326 202.404C259.639 203.536 257.998 204.761 256.361 205.949C256.161 206.092 255.891 206.235 255.948 206.556C255.991 206.82 256.241 206.863 256.44 206.845C257.356 206.76 258.145 206.91 258.77 207.774C259.057 208.17 259.346 207.709 259.589 207.499C261.346 205.942 263.144 204.436 264.848 202.811C266.552 201.187 268.426 199.677 269.903 197.706ZM264.631 194.24L258.497 197.363C255.615 198.827 253.062 200.933 250.123 202.283C250.051 202.303 249.984 202.341 249.928 202.395C249.873 202.449 249.831 202.516 249.805 202.592C249.78 202.667 249.773 202.748 249.783 202.828C249.794 202.907 249.823 202.982 249.867 203.047C249.901 203.116 249.95 203.177 250.008 203.224C250.067 203.271 250.135 203.304 250.206 203.32C250.278 203.336 250.353 203.335 250.424 203.317C250.495 203.299 250.562 203.264 250.619 203.215L251.951 202.472C252.949 201.922 253.914 201.451 254.923 202.472C255.362 202.911 255.665 202.451 255.985 202.187C257.532 200.912 259.106 199.688 260.624 198.359C262.035 197.114 263.709 196.16 264.631 194.24ZM253.894 177.721L253.641 177.418C251.232 179.099 248.692 180.577 246.652 182.851C245.447 184.197 244.112 185.411 242.851 186.703C241.983 187.596 241.131 188.505 240.295 189.431C239.842 189.934 239.509 190.73 239.942 191.194C240.375 191.658 240.758 190.837 241.104 190.502C244.186 187.455 247.262 184.407 250.333 181.355C251.545 180.159 252.713 178.946 253.894 177.721ZM238.611 265.187C238.664 265.569 238.554 266.048 238.944 266.276C239.376 266.54 239.609 266.094 239.886 265.848C242.578 263.427 245.211 260.925 248.106 258.772C248.912 258.172 248.632 257.64 248.173 257.015C247.714 256.391 247.234 256.055 246.539 256.748C244.078 259.19 241.603 261.617 239.113 264.031C238.943 264.157 238.806 264.33 238.718 264.531C238.63 264.732 238.593 264.955 238.611 265.177V265.187ZM319.089 181.548C318.197 181.152 317.395 180.895 317.308 180.063C317.182 178.828 316.2 177.835 316.513 176.493C316.606 176.093 316.257 175.879 316.017 175.633C314.599 174.205 314.722 173.269 316.413 172.27C318.224 171.199 320.017 170.095 321.818 169.003C322.191 168.778 322.597 168.503 322.384 167.975C322.111 167.3 321.645 167.771 321.339 167.939C320.007 168.653 318.716 169.449 317.408 170.21C316.32 170.838 315.271 171.595 314.123 172.041C313.404 172.323 313.181 172.469 313.457 173.287C314.659 176.736 315.804 180.202 316.985 183.662C317.098 183.949 317.251 184.216 317.438 184.454C317.5 184.545 317.59 184.61 317.692 184.638C317.794 184.666 317.902 184.655 317.997 184.608C318.045 184.585 318.088 184.552 318.124 184.511C318.159 184.47 318.186 184.421 318.203 184.368C318.219 184.315 318.225 184.258 318.22 184.202C318.215 184.146 318.199 184.092 318.174 184.044C317.741 183.019 318.03 182.241 319.089 181.537V181.548ZM281.702 228.034C280.937 226.866 280.993 225.892 281.909 224.96C282.408 224.449 282.122 224.171 281.559 224.164C280.481 224.164 279.399 224.164 278.317 224.182C277.983 224.223 277.646 224.131 277.37 223.923C277.095 223.715 276.9 223.405 276.823 223.054C276.716 222.664 276.676 222.186 276.187 222.204C274.523 222.261 272.859 222.361 271.195 222.447C274.52 224.781 278.134 226.242 281.702 228.034ZM258.581 178.053C261.14 176.75 263.709 175.554 266.276 174.344C266.465 174.25 266.624 174.099 266.732 173.908C266.841 173.717 266.894 173.496 266.885 173.273C266.958 171.898 267.088 170.527 267.181 169.153C267.204 168.835 267.43 168.357 266.921 168.289C266.826 168.275 266.729 168.285 266.638 168.318C266.547 168.351 266.465 168.407 266.398 168.481C266.33 168.554 266.28 168.644 266.251 168.742C266.222 168.84 266.214 168.944 266.229 169.046C266.299 169.992 265.723 170.502 265.177 171.049C263.57 172.655 261.942 174.24 260.361 175.875C259.719 176.536 258.943 177.082 258.581 178.049V178.053ZM272.39 203.557C272.203 203.629 272.01 203.686 271.83 203.775C268.435 205.524 265.176 207.563 262.085 209.873C261.183 210.53 261.769 210.912 261.962 211.44C262.295 212.293 262.748 211.986 263.234 211.615C264.858 210.383 266.562 209.237 268.099 207.906C269.637 206.574 271.281 205.403 272.39 203.554V203.557ZM274.14 218.302C275.339 217.538 276.533 216.745 277.752 215.999C279.85 214.664 281.881 213.21 283.836 211.644C284.099 211.44 284.471 211.258 284.168 210.815C284.072 210.667 283.927 210.563 283.762 210.526C283.597 210.488 283.424 210.519 283.28 210.612C283.127 210.68 282.967 210.74 282.821 210.815C280.368 212.104 278.028 213.607 275.681 215.099C274.496 215.838 273.022 216.431 274.14 218.302ZM328.025 248.854C324.787 251.746 321.622 254.702 318.327 257.53C319.4 257.135 320.442 256.646 321.442 256.069C322.6 255.427 323.642 254.438 325.103 254.82C325.413 254.902 325.662 254.638 325.825 254.381C326.87 252.702 327.611 250.827 328.009 248.854H328.025ZM276.899 209.145C276.623 209.03 276.497 209.28 276.31 209.334C273.285 210.233 270.652 212.086 267.857 213.489C267.088 213.871 266.525 215.467 266.985 215.988C267.65 216.749 268.316 216.138 268.852 215.724C271.588 213.629 274.526 211.79 276.899 209.145ZM296.749 232.35C295.302 232.907 293.784 233.267 292.469 234.181C292.196 234.374 292.057 234.588 292.426 234.895C294.371 236.485 296.196 238.236 297.884 240.133C298.127 240.411 298.367 240.611 298.733 240.286C299.099 239.961 298.993 239.644 298.733 239.39C297.678 238.412 298.031 237.555 298.87 236.691C299.112 236.406 299.334 236.101 299.535 235.781C298.693 235.991 297.994 236.441 297.255 236.791C296.447 237.173 295.591 237.255 295.015 236.366C294.44 235.477 294.706 234.692 295.418 233.981C295.884 233.514 296.536 233.21 296.749 232.354V232.35ZM243.121 250.243C244.259 251.81 244.199 252.531 242.755 254.009C241.31 255.487 239.932 256.89 238.518 258.329C238.331 258.478 238.205 258.7 238.168 258.946C238.131 259.193 238.184 259.445 238.318 259.65C238.651 260.164 238.984 259.725 239.243 259.479C241.14 257.622 243.014 255.737 244.901 253.877C245.294 253.492 245.454 253.113 245.134 252.606C244.572 251.719 243.894 250.923 243.121 250.243ZM280.224 272.042C279.945 271.79 279.591 271.655 279.226 271.66C278.334 271.556 277.519 272.017 276.54 271.76C274.24 271.181 271.854 271.081 269.487 270.981C269.251 270.981 268.925 270.935 268.895 271.296C268.865 271.656 269.181 271.678 269.424 271.699C269.847 271.738 270.289 271.792 270.552 272.174C271.624 273.727 272.922 273.68 274.357 272.859C274.563 272.706 274.798 272.605 275.046 272.563C276.044 272.563 276.996 271.592 278.041 272.256C278.777 272.724 279.439 272.663 280.224 272.042ZM322.401 162.284C320.936 162.705 320.041 163.523 319.072 164.151C316.832 165.579 314.619 167.064 312.396 168.528C312.063 168.735 311.644 168.971 311.963 169.435C312.283 169.899 312.582 169.392 312.812 169.235C314.731 167.93 316.733 166.77 318.803 165.765C320.294 165.007 321.545 163.797 322.401 162.284ZM300.697 203.604C300.713 202.761 300.071 202.726 299.698 202.465C297.106 200.723 297.106 200.723 295.538 202.151C295.475 202.208 295.405 202.258 295.345 202.319C295.132 202.536 294.909 202.772 294.995 203.118C295.102 203.554 295.461 203.579 295.801 203.568C296.467 203.547 297.132 203.568 297.492 204.361C297.701 204.843 297.874 205.485 298.537 205.146C299.328 204.757 300.057 204.236 300.697 203.604ZM306.425 248.294C305.453 248.694 304.761 249.19 304.015 249.24C303.017 249.315 302.943 249.861 303.09 250.643C303.438 252.385 303.584 254.167 303.526 255.948C303.506 256.359 303.336 256.958 303.909 257.055C304.024 257.071 304.142 257.063 304.255 257.031C304.368 256.998 304.474 256.943 304.567 256.866C304.659 256.79 304.737 256.695 304.796 256.586C304.854 256.478 304.892 256.358 304.907 256.234C305.103 254.981 306.075 254.449 306.824 253.735C307.064 253.495 307.347 253.306 307.593 253.071C307.769 252.906 308.032 252.714 307.803 252.424C307.636 252.221 307.423 252.374 307.257 252.51C307.09 252.646 307.004 252.746 306.864 252.838C305.965 253.428 305.25 253.242 304.624 252.314C303.998 251.385 304.291 250.771 304.957 250.111C305.426 249.633 306.062 249.329 306.425 248.294ZM291.088 271.014C291.058 272.174 291.381 272.563 292.086 272.149C293.834 271.131 295.548 270.05 297.279 269.007C297.658 268.779 297.688 268.515 297.478 268.133C297.269 267.751 297.049 267.715 296.759 267.933C295.198 269.093 293.325 269.461 291.627 270.278C291.318 270.432 290.991 270.528 291.088 271.014ZM289.028 198.774C289.566 198.765 290.104 198.725 290.639 198.652C291.221 198.545 292.126 198.934 292.323 198.274C292.586 197.396 291.497 197.363 291.058 196.889C290.841 196.684 290.612 196.494 290.372 196.321C290.251 196.196 290.096 196.114 289.93 196.085C289.763 196.057 289.593 196.083 289.44 196.16C288.442 196.767 287.443 197.413 286.445 198.049C286.229 198.188 285.999 198.37 286.112 198.677C286.225 198.984 286.532 198.92 286.778 198.906C287.537 198.87 288.282 198.816 289.028 198.774ZM302.198 246.734C302.504 246.759 304.834 244.681 304.697 244.51C304.132 243.707 303.472 242.987 302.734 242.368C302.341 242.075 300.65 243.41 300.594 243.878C300.554 244.22 301.948 246.712 302.198 246.734ZM284.052 218.53C282.907 218.412 281.782 217.459 280.617 218.662C280.251 219.041 279.798 219.159 279.988 219.851C280.178 220.544 280.511 220.851 281.15 220.801C281.932 220.744 282.767 220.826 283.48 220.551C284.145 220.301 283.549 219.28 284.029 218.766C284.072 218.727 284.045 218.612 284.052 218.534V218.53ZM244.063 178.232C241.583 179.799 239.07 180.823 238.761 183.758C240.471 182.391 242.418 180.77 244.063 178.232ZM264.062 166.047C264.252 165.933 264.438 165.833 264.608 165.711C265.607 164.997 266.545 164.187 267.587 163.569C268.685 162.909 268.918 161.706 269.411 160.663C269.472 160.573 269.506 160.464 269.506 160.353C269.506 160.241 269.472 160.132 269.411 160.042C269.375 160.001 269.331 159.97 269.283 159.949C269.234 159.928 269.182 159.919 269.13 159.921C269.078 159.924 269.027 159.939 268.981 159.965C268.934 159.99 268.894 160.027 268.862 160.071C267.16 161.825 265.467 163.584 263.783 165.347C263.741 165.38 263.705 165.421 263.679 165.469C263.652 165.517 263.635 165.57 263.629 165.625C263.622 165.681 263.626 165.737 263.641 165.79C263.655 165.844 263.68 165.893 263.713 165.936C263.793 166.018 263.939 166.022 264.062 166.061V166.047ZM276.603 205.364C278.743 204.811 280.444 203.579 282.394 203.122C279.858 202.262 278.314 202.865 276.603 205.364ZM263.916 183.33C265.397 182.616 266.881 181.937 268.359 181.23C268.407 181.209 268.45 181.177 268.486 181.137C268.522 181.097 268.55 181.049 268.568 180.996C268.585 180.944 268.593 180.888 268.59 180.833C268.586 180.777 268.573 180.723 268.549 180.673C268.406 180.274 268.136 180.349 267.833 180.431C266.252 180.884 264.821 181.602 263.916 183.34V183.33ZM286.944 204.786C287.927 204.186 288.857 203.491 289.72 202.708C290.073 202.415 290.126 201.994 289.63 201.994C288.695 201.976 287.67 201.93 286.848 202.308C286.285 202.565 287.101 203.447 286.924 204.093C286.898 204.327 286.904 204.564 286.944 204.796V204.786ZM289.251 227.716L288.991 227.359C287.903 227.923 286.794 228.451 285.733 229.069C285.467 229.226 284.877 229.519 285.167 229.919C285.457 230.319 286.165 230.843 286.668 230.422C287.576 229.576 288.438 228.677 289.251 227.727V227.716ZM250.712 210.398C251.485 211.383 252.516 211.711 253.289 212.418C253.512 212.622 253.801 212.861 254.067 212.636C254.543 212.233 254.38 211.565 254.477 211.026C254.495 210.949 254.496 210.868 254.479 210.79C254.463 210.713 254.429 210.64 254.38 210.58C254.332 210.519 254.271 210.472 254.202 210.442C254.133 210.412 254.058 210.401 253.984 210.408C252.956 210.383 251.927 210.398 250.712 210.398ZM266.023 277.25C266.355 277.229 266.848 277.347 266.665 276.893C266.459 276.372 266.219 275.669 265.61 275.569C265.001 275.469 264.571 276.187 264.611 276.544C264.688 277.458 265.6 276.958 266.026 277.25H266.023ZM238.897 243.164C238.857 244.235 238.358 245.056 239.13 245.663C239.204 245.707 239.285 245.735 239.368 245.744C239.452 245.754 239.537 245.746 239.618 245.72C239.698 245.694 239.773 245.651 239.838 245.593C239.903 245.536 239.957 245.464 239.995 245.384C240.242 244.485 239.639 243.956 238.9 243.164H238.897ZM248.988 209.334C249.617 209.152 249.321 208.502 249.548 208.131C249.711 207.849 249.684 207.609 249.331 207.574C249.103 207.543 248.871 207.602 248.68 207.739C248.488 207.876 248.348 208.082 248.286 208.32C248.18 208.791 248.735 208.973 248.992 209.334H248.988ZM262.634 217.216C262.691 216.859 262.525 216.806 262.302 216.827C261.909 216.863 261.559 216.974 261.523 217.47C261.511 217.547 261.517 217.625 261.54 217.699C261.563 217.773 261.602 217.839 261.654 217.894C261.706 217.948 261.769 217.988 261.838 218.01C261.907 218.033 261.981 218.037 262.052 218.023C262.535 217.988 262.535 217.502 262.651 217.216H262.634ZM261.959 274.166C262.009 273.809 261.839 273.652 261.626 273.727C261.027 273.937 260.295 274.084 260.092 274.798C260.008 275.083 260.538 275.266 260.854 275.287C261.609 275.337 261.719 274.623 261.959 274.166ZM264.498 271.738C264.74 271.692 264.966 271.579 265.156 271.412C265.345 271.244 265.491 271.027 265.58 270.782C265.703 270.292 265.107 270.314 264.775 270.217C264.348 270.096 264.012 270.185 264.066 270.767C264.099 271.128 263.976 271.596 264.488 271.738H264.498ZM262.624 273.452C262.588 273.381 262.561 273.273 262.515 273.263C262.477 273.259 262.44 273.265 262.405 273.28C262.371 273.295 262.34 273.318 262.315 273.348C262.248 273.484 262.315 273.591 262.455 273.584C262.515 273.58 262.568 273.498 262.624 273.452ZM263.44 166.218C263.417 166.19 263.397 166.14 263.37 166.136C263.343 166.133 263.313 166.179 263.283 166.2C263.307 166.233 263.33 166.283 263.357 166.286C263.383 166.29 263.413 166.243 263.44 166.218Z" fill="white"/>
<path d="M208.701 308.433C207.841 305.863 209.392 302.856 211.899 302.234C212.579 302.066 215.234 302.102 216.124 302.292C216.992 302.477 217.02 302.505 217.474 303.6C218.048 304.983 217.907 305.052 216.631 304.018C213.75 301.683 209.632 302.991 209.632 306.24C209.632 307.912 210.384 308.59 213.442 309.68C216.122 310.635 216.703 310.957 217.659 312.015C219.514 314.067 219.251 317.164 217.054 319.128C215.929 320.135 215.857 320.15 211.582 320.268L208 320.366L208.003 317.593C208.004 315.737 208.063 314.911 208.182 315.091C208.279 315.241 208.358 315.632 208.36 315.96C208.378 319.845 215.475 320.983 217.356 317.401C218.48 315.26 217 313.384 213.194 312.127C210.492 311.234 209.313 310.265 208.701 308.433Z" fill="#0050FD"/>
<path d="M223.245 313.107C222.608 308.079 225.495 303.716 230.344 302.375C233.061 301.624 238.374 302.402 238.904 303.63C239.762 305.613 239.737 305.652 238.304 304.581C233.024 300.632 225.437 303.45 225.085 309.489C224.606 317.717 233.782 322.995 240.296 318.238C241.445 317.399 241.561 317.52 240.798 318.761L240.189 319.747L237.797 320.216C229.622 321.817 224.002 319.07 223.245 313.107Z" fill="#0050FD"/>
<path d="M246.038 302.858C245.753 302.824 245.54 302.69 245.54 302.542C245.54 302.331 245.97 302.283 247.897 302.283C249.871 302.283 250.254 302.327 250.254 302.554C250.254 302.721 250.085 302.824 249.808 302.824C249.073 302.824 248.986 303.282 248.986 307.142V310.762H253.903H258.82L258.75 307.087C258.677 303.226 258.608 302.904 257.827 302.79C257.617 302.759 257.413 302.633 257.372 302.508C257.315 302.335 257.874 302.283 259.775 302.283C262.187 302.283 263.105 302.56 261.574 302.826L261.045 302.918L260.998 311.155C260.947 320.03 260.941 319.962 261.874 319.962C262.067 319.962 262.223 320.044 262.223 320.143C262.223 320.255 261.287 320.324 259.775 320.324C257.485 320.324 256.651 320.142 257.848 319.904C258.578 319.759 258.632 319.481 258.728 315.227L258.814 311.484H253.901H248.986V315.322C248.986 319.418 249.093 319.962 249.902 319.962C250.097 319.962 250.254 320.044 250.254 320.143C250.254 320.255 249.348 320.324 247.897 320.324C246.446 320.324 245.54 320.255 245.54 320.143C245.54 320.044 245.693 319.962 245.88 319.962C246.62 319.962 246.633 319.794 246.584 311.193L246.537 302.914L246.038 302.858Z" fill="#0050FD"/>
<path d="M313.238 302.824C312.984 302.824 312.82 302.716 312.82 302.548C312.82 302.22 317.682 302.226 317.762 302.554C317.787 302.653 317.589 302.759 317.323 302.79C316.428 302.892 316.433 302.851 316.487 310.729C316.551 319.996 316.377 319.628 320.709 319.661C323.777 319.684 324.453 319.249 324.842 316.995C325.153 315.186 325.333 315.58 325.333 318.068V320.324H319.077C315.027 320.324 312.82 320.26 312.82 320.143C312.82 320.044 312.978 319.962 313.171 319.962C314.094 319.962 314.09 320.002 314.09 311.327C314.09 302.78 314.094 302.824 313.238 302.824Z" fill="#0050FD"/>
<path fill-rule="evenodd" clip-rule="evenodd" d="M274.189 302.281C272.746 302.641 271.538 303.301 270.048 304.538C268.225 306.053 266.769 309.465 266.761 312.241C266.728 322.961 282.675 323.615 285.179 312.997C286.624 306.869 283.22 302.247 277.196 302.158C275.893 302.138 274.541 302.193 274.189 302.281ZM281.793 306.358C280.535 304.989 279.509 304.319 277.496 303.551C276.53 303.183 274.209 303.065 273.376 303.342C267.707 305.232 266.577 312.375 271.221 316.96C278.662 324.307 288.874 314.066 281.793 306.358Z" fill="#0050FD"/>
<path fill-rule="evenodd" clip-rule="evenodd" d="M297.19 302.358C295.295 302.899 293.211 304.459 291.737 306.442C288.143 311.272 290.579 318.891 296.18 320.338C304.415 322.466 311.625 313.85 307.918 306.311C306.298 303.016 301.316 301.18 297.19 302.358ZM303.283 318.722C309.439 315.706 308.673 307.346 301.939 304.049C298.797 302.509 295.946 302.949 293.6 305.333C287.732 311.299 295.764 322.403 303.283 318.722Z" fill="#0050FD"/>
<path d="M124.094 302.744C123.811 302.71 123.598 302.573 123.598 302.422C123.598 302.2 124.468 302.159 129.288 302.159H134.977V303.459C134.977 304.875 134.673 305.144 134.387 303.981C134.129 302.934 133.977 302.893 130.337 302.893H127.029V306.931V310.969H129.443C132.357 310.969 133.532 310.83 133.532 310.486C133.532 310.348 133.654 310.235 133.802 310.235C134.007 310.235 134.073 310.458 134.073 311.142C134.073 312.114 133.846 312.464 133.556 311.937C133.397 311.649 133.014 311.605 130.184 311.551L126.991 311.489L127.061 315.13C127.156 320.115 126.936 319.892 131.686 319.843C134.758 319.811 135.213 319.67 135.427 318.685C135.659 317.613 136.061 318.017 136.061 319.32V320.514H129.83C124.134 320.514 122.737 320.406 124.056 320.069C124.822 319.874 124.863 319.42 124.841 311.461C124.817 302.955 124.806 302.826 124.094 302.744Z" fill="#0050FD"/>
<path d="M160.895 302.71C160.614 302.71 160.444 302.606 160.444 302.434C160.444 301.843 163.923 302.055 164.184 302.663C164.302 302.941 164.899 304.366 165.509 305.829C166.12 307.294 166.765 308.822 166.942 309.226C167.247 309.92 167.655 310.888 168.99 314.089C169.306 314.847 169.701 315.755 169.868 316.109L170.171 316.751L170.568 315.833C170.785 315.328 171.107 314.585 171.284 314.181C171.459 313.777 171.816 312.933 172.075 312.304C172.334 311.676 172.739 310.726 172.977 310.194C173.213 309.661 173.871 308.112 174.437 306.751C175.005 305.39 175.678 303.8 175.934 303.217L176.399 302.159H177.918C179.356 302.159 179.993 302.486 178.941 302.683C177.906 302.877 177.806 303.44 178.247 306.564C178.49 308.291 178.723 309.986 179.668 316.935C180.037 319.642 180.071 319.761 180.587 319.998C181.428 320.388 181.032 320.514 178.956 320.514C176.9 320.514 176.5 320.403 177.285 320.052C177.799 319.823 177.794 319.618 177.166 315.099C176.901 313.18 176.521 310.372 176.324 308.858C176.127 307.344 175.945 306.035 175.92 305.951C175.896 305.867 175.292 307.188 174.579 308.888C173.866 310.588 172.66 313.424 171.898 315.19C171.136 316.958 170.327 318.858 170.1 319.413C169.53 320.807 169.386 320.715 168.361 318.311C167.867 317.149 167.11 315.374 166.679 314.364C162.998 305.728 162.992 305.714 162.972 306.197C162.966 306.348 162.841 307.339 162.695 308.4C162.548 309.459 162.223 311.855 161.972 313.722C161.72 315.59 161.432 317.682 161.331 318.372C161.14 319.672 161.271 320.146 161.82 320.146C161.957 320.146 162.069 320.229 162.069 320.33C162.069 320.437 161.467 320.514 160.624 320.514C159.782 320.514 159.179 320.437 159.179 320.33C159.179 320.229 159.344 320.146 159.544 320.146C160.009 320.146 160.205 319.669 160.446 317.943C161.361 311.401 161.583 309.784 161.914 307.261C162.385 303.69 162.165 302.71 160.895 302.71Z" fill="#0050FD"/>
<path fill-rule="evenodd" clip-rule="evenodd" d="M77 302.403C77 302.574 77.195 302.708 77.4931 302.744C78.2311 302.83 78.2939 303.617 78.23 311.973C78.1704 319.707 78.1238 320.146 77.3544 320.146C77.1593 320.146 77 320.229 77 320.33C77 320.576 87.1465 320.568 88.8241 320.321C97.8534 318.995 99.0259 305.626 90.3673 302.741C88.6182 302.159 77 301.866 77 302.403ZM92.552 316.627C95.9797 311.512 93.6628 305.386 87.5659 303.443C86.5668 303.125 85.6836 303.02 83.3569 302.941L80.4125 302.841L80.4667 310.447C80.509 316.29 80.4359 318.444 81.4213 319.233C82.0755 319.757 83.1964 319.679 85.1276 319.68C89.2641 319.682 90.9763 318.979 92.552 316.627Z" fill="#0050FD"/>
<path fill-rule="evenodd" clip-rule="evenodd" d="M100.885 302.388C100.927 302.515 101.116 302.647 101.307 302.683C101.443 302.709 101.557 302.727 101.65 302.78C102.113 303.042 102.105 304.162 102.105 311.346C102.105 318.545 102.108 319.855 101.612 320.093C101.499 320.147 101.36 320.146 101.189 320.146C100.997 320.146 100.841 320.229 100.841 320.33C100.841 320.443 101.774 320.514 103.279 320.514C105.57 320.514 106.39 320.329 105.186 320.084C104.416 319.928 104.274 319.174 104.273 315.237L104.272 311.886H105.805H107.338L107.815 312.667C109.494 315.417 112.041 319.021 112.79 319.709C114.189 320.993 118.205 320.984 119.258 319.693C119.629 319.24 119.346 319.155 118.545 319.481C116.083 320.482 114.572 319.158 110.019 312.006L109.452 311.117L110.069 310.631C113.383 308.018 113.253 303.75 109.82 302.524C108.559 302.074 100.744 301.955 100.885 302.388ZM109.583 309.679C111.096 307.978 110.273 304.393 108.131 303.348C107.677 303.127 106.879 302.98 105.853 302.928L104.272 302.848V307.022V311.196L106.033 311.066C108.056 310.915 108.712 310.66 109.583 309.679Z" fill="#0050FD"/>
<path fill-rule="evenodd" clip-rule="evenodd" d="M147.061 302.48C146.589 303.745 143.792 310.916 143.643 311.244C143.552 311.446 143.145 312.479 142.74 313.538C142.334 314.599 141.894 315.713 141.761 316.016C141.628 316.319 141.463 316.756 141.395 316.986C140.967 318.427 140.166 319.83 139.662 320.023C138.79 320.357 139.051 320.514 140.486 320.514C141.745 320.514 142.208 320.329 141.57 320.08C141.26 319.96 141.377 319.595 143.209 314.963L144.278 312.258L146.825 312.255L149.372 312.254L149.841 313.401C152.488 319.875 152.498 319.904 152.064 320.072C151.318 320.364 151.955 320.514 153.942 320.514C155.266 320.514 156.109 320.442 156.109 320.33C156.109 320.229 155.98 320.146 155.824 320.146C155.329 320.146 154.555 319.172 154.146 318.034C153.929 317.429 153.675 316.769 153.583 316.567C153.385 316.138 151.159 310.566 150.648 309.226C150.457 308.72 150.19 308.06 150.057 307.757C149.923 307.454 149.471 306.339 149.053 305.279C148.636 304.219 148.17 303.042 148.019 302.663C147.695 301.851 147.324 301.779 147.061 302.48ZM148.167 309.226C148.075 309.023 147.747 308.199 147.437 307.394C147.129 306.588 146.859 305.913 146.838 305.892C146.818 305.871 146.567 306.447 146.28 307.173C145.994 307.898 145.654 308.739 145.525 309.042C145.396 309.345 145.131 310.026 144.937 310.556L144.584 311.52H146.822H149.06L148.696 310.556C148.496 310.026 148.258 309.427 148.167 309.226Z" fill="#0050FD"/>
<defs>
<linearGradient id="paint0_linear" x1="200" y1="0" x2="200" y2="370" gradientUnits="userSpaceOnUse">
<stop stop-color="#00C7FF"/>
<stop offset="1" stop-color="#0050FD"/>
</linearGradient>
</defs>
</svg>
